<mxfile host="app.diagrams.net" modified="2023-06-23T16:16:53.239Z" agent="Mozilla/5.0 (Windows NT 10.0; Win64; x64) AppleWebKit/537.36 (KHTML, like Gecko) Chrome/114.0.0.0 Safari/537.36" etag="07T5-HN4PVVaLRnBnpY7" version="21.3.4" type="github">
  <diagram name="第 1 页" id="AyPxv3-5gu0Pl0kbzkH_">
    <mxGraphModel dx="1832" dy="836" grid="0" gridSize="10" guides="1" tooltips="1" connect="1" arrows="1" fold="1" page="0" pageScale="1" pageWidth="827" pageHeight="1169" math="0" shadow="0">
      <root>
        <mxCell id="0" />
        <mxCell id="1" parent="0" />
        <mxCell id="VJ0_IcyXV62cLwjG0Lbq-3" style="edgeStyle=orthogonalEdgeStyle;rounded=0;orthogonalLoop=1;jettySize=auto;html=1;exitX=0.5;exitY=1;exitDx=0;exitDy=0;entryX=0.508;entryY=-0.097;entryDx=0;entryDy=0;entryPerimeter=0;curved=1;shape=flexArrow;endArrow=block;endFill=0;fillColor=default;fillStyle=auto;" edge="1" parent="1" source="VJ0_IcyXV62cLwjG0Lbq-1" target="VJ0_IcyXV62cLwjG0Lbq-2">
          <mxGeometry relative="1" as="geometry" />
        </mxCell>
        <mxCell id="VJ0_IcyXV62cLwjG0Lbq-1" value="&lt;b&gt;&lt;font style=&quot;font-size: 21px;&quot;&gt;Stream 的源头&lt;/font&gt;&lt;/b&gt;" style="rounded=1;whiteSpace=wrap;html=1;strokeWidth=2;fillWeight=4;hachureGap=8;hachureAngle=45;fillColor=#dae8fc;sketch=1;strokeColor=#6c8ebf;fontFamily=Comic Sans MS;" vertex="1" parent="1">
          <mxGeometry x="-170" y="287" width="163" height="105" as="geometry" />
        </mxCell>
        <mxCell id="VJ0_IcyXV62cLwjG0Lbq-5" style="edgeStyle=orthogonalEdgeStyle;rounded=0;orthogonalLoop=1;jettySize=auto;html=1;entryX=0;entryY=0.5;entryDx=0;entryDy=0;strokeWidth=4;curved=1;strokeColor=#D5E8D4;" edge="1" parent="1" source="VJ0_IcyXV62cLwjG0Lbq-2" target="VJ0_IcyXV62cLwjG0Lbq-4">
          <mxGeometry relative="1" as="geometry" />
        </mxCell>
        <mxCell id="VJ0_IcyXV62cLwjG0Lbq-2" value="可以是集合、数组、IO 流" style="text;html=1;align=center;verticalAlign=middle;resizable=0;points=[];autosize=1;strokeColor=none;fillColor=none;fontStyle=1;fontSize=16;" vertex="1" parent="1">
          <mxGeometry x="-190" y="477" width="199" height="31" as="geometry" />
        </mxCell>
        <mxCell id="VJ0_IcyXV62cLwjG0Lbq-11" style="edgeStyle=orthogonalEdgeStyle;rounded=0;orthogonalLoop=1;jettySize=auto;html=1;entryX=0;entryY=0.5;entryDx=0;entryDy=0;strokeWidth=4;strokeColor=#F19C99;" edge="1" parent="1" source="VJ0_IcyXV62cLwjG0Lbq-4" target="VJ0_IcyXV62cLwjG0Lbq-10">
          <mxGeometry relative="1" as="geometry" />
        </mxCell>
        <mxCell id="VJ0_IcyXV62cLwjG0Lbq-4" value="&lt;b&gt;&lt;font style=&quot;font-size: 20px;&quot;&gt;创建 Stream 的实例&lt;/font&gt;&lt;/b&gt;" style="ellipse;whiteSpace=wrap;html=1;strokeWidth=2;fillWeight=2;hachureGap=8;fillColor=#d5e8d4;fillStyle=dots;sketch=1;strokeColor=#82b366;" vertex="1" parent="1">
          <mxGeometry x="83" y="307.25" width="190" height="64.5" as="geometry" />
        </mxCell>
        <mxCell id="VJ0_IcyXV62cLwjG0Lbq-6" value="&lt;b&gt;&lt;font style=&quot;font-size: 20px;&quot;&gt;操作1&lt;/font&gt;&lt;/b&gt;" style="rounded=1;whiteSpace=wrap;html=1;strokeWidth=2;fillWeight=4;hachureGap=8;hachureAngle=45;fillColor=#f8cecc;sketch=1;strokeColor=#b85450;" vertex="1" parent="1">
          <mxGeometry x="342" y="270" width="57" height="144" as="geometry" />
        </mxCell>
        <mxCell id="VJ0_IcyXV62cLwjG0Lbq-7" value="&lt;b&gt;&lt;font style=&quot;font-size: 20px;&quot;&gt;操作2&lt;/font&gt;&lt;/b&gt;" style="rounded=1;whiteSpace=wrap;html=1;strokeWidth=2;fillWeight=4;hachureGap=8;hachureAngle=45;fillColor=#f8cecc;sketch=1;strokeColor=#b85450;" vertex="1" parent="1">
          <mxGeometry x="429" y="270" width="57" height="144" as="geometry" />
        </mxCell>
        <mxCell id="VJ0_IcyXV62cLwjG0Lbq-8" value="&lt;b&gt;&lt;font style=&quot;font-size: 20px;&quot;&gt;操作n&lt;/font&gt;&lt;/b&gt;" style="rounded=1;whiteSpace=wrap;html=1;strokeWidth=2;fillWeight=4;hachureGap=8;hachureAngle=45;fillColor=#f8cecc;sketch=1;strokeColor=#b85450;" vertex="1" parent="1">
          <mxGeometry x="559" y="270" width="57" height="144" as="geometry" />
        </mxCell>
        <mxCell id="VJ0_IcyXV62cLwjG0Lbq-9" value="&lt;b&gt;&lt;font style=&quot;font-size: 18px;&quot;&gt;...&lt;/font&gt;&lt;/b&gt;" style="text;html=1;align=center;verticalAlign=middle;resizable=0;points=[];autosize=1;strokeColor=none;fillColor=none;" vertex="1" parent="1">
          <mxGeometry x="506" y="325" width="33" height="34" as="geometry" />
        </mxCell>
        <mxCell id="VJ0_IcyXV62cLwjG0Lbq-10" value="" style="rounded=1;whiteSpace=wrap;html=1;fillColor=none;dashed=1;dashPattern=8 8;strokeColor=#F19C99;strokeWidth=2;" vertex="1" parent="1">
          <mxGeometry x="314" y="223" width="328" height="233" as="geometry" />
        </mxCell>
      </root>
    </mxGraphModel>
  </diagram>
</mxfile>
